M48
; DRILL file {KiCad (7.0.0)} date Tue Mar 28 16:02:07 2023
; FORMAT={-:-/ absolute / inch / decimal}
; #@! TF.CreationDate,2023-03-28T16:02:07-07:00
; #@! TF.GenerationSoftware,Kicad,Pcbnew,(7.0.0)
; #@! TF.FileFunction,Plated,1,2,PTH
FMAT,2
INCH
; #@! TA.AperFunction,Plated,PTH,ComponentDrill
T1C0.0079
; #@! TA.AperFunction,Plated,PTH,ViaDrill
T2C0.0157
; #@! TA.AperFunction,Plated,PTH,ComponentDrill
T3C0.0394
; #@! TA.AperFunction,Plated,PTH,ComponentDrill
T4C0.0453
; #@! TA.AperFunction,Plated,PTH,ComponentDrill
T5C0.0490
%
G90
G05
T1
X5.5677Y-2.7662
X5.5677Y-2.8263
X5.5978Y-2.7362
X5.5978Y-2.7963
X5.5978Y-2.8563
X5.6278Y-2.7662
X5.6278Y-2.8263
X5.6578Y-2.7362
X5.6578Y-2.7963
X5.6578Y-2.8563
X5.6878Y-2.7662
X5.6878Y-2.8263
T2
X3.1406Y-4.189
X3.3119Y-3.5011
X3.3138Y-3.3504
X3.365Y-5.0709
X3.377Y-2.599
X3.4437Y-3.4094
X3.4674Y-2.752
X3.478Y-3.274
X3.5658Y-2.5748
X3.566Y-3.954
X3.566Y-4.014
X3.566Y-4.074
X3.6091Y-3.1378
X3.6248Y-5.0748
X3.6406Y-2.8701
X3.6957Y-3.0787
X3.7272Y-2.8228
X3.7548Y-2.874
X3.8059Y-3.1969
X3.8453Y-2.7756
X3.8886Y-5.0709
X3.8914Y-3.0098
X3.904Y-3.95
X3.904Y-4.01
X3.904Y-4.07
X3.9292Y-2.9276
X3.9307Y-3.0098
X3.9831Y-3.1339
X4.0737Y-5.063
X4.1012Y-3.2283
X4.1288Y-2.7835
X4.226Y-3.948
X4.226Y-4.008
X4.226Y-4.068
X4.2429Y-2.7087
X4.2863Y-5.0669
X4.3099Y-3.3339
X4.3215Y-3.0964
X4.3729Y-3.0456
X4.3926Y-3.1417
X4.417Y-2.73
X4.4611Y-3.3768
X4.4792Y-5.0591
X4.5275Y-2.7095
X4.574Y-3.95
X4.574Y-4.01
X4.574Y-4.07
X4.5874Y-3.0965
X4.6445Y-2.7165
X4.653Y-3.193
X4.6721Y-5.0591
X4.8296Y-3.2835
X4.8611Y-5.063
X4.8989Y-2.5551
X4.902Y-3.948
X4.902Y-4.008
X4.902Y-4.068
X4.928Y-3.295
X4.9491Y-2.5118
X4.9713Y-2.7126
X5.0658Y-5.063
X5.0737Y-2.748
X5.1012Y-2.6732
X5.1288Y-3.0866
X5.176Y-2.7047
X5.1853Y-2.7546
X5.1859Y-2.7945
X5.2075Y-2.4882
X5.232Y-3.948
X5.232Y-4.008
X5.232Y-4.068
X5.2331Y-3.2303
X5.2351Y-2.8819
X5.2516Y-3.0858
X5.2548Y-5.063
X5.2587Y-2.9557
X5.2717Y-3.3283
X5.3719Y-3.1594
X5.3726Y-2.9546
X5.3729Y-2.5591
X5.3886Y-2.9906
X5.408Y-2.9027
X5.4102Y-3.2954
X5.4524Y-3.0779
X5.4801Y-3.1437
X5.5067Y-5.0591
X5.554Y-2.5079
X5.566Y-3.944
X5.566Y-4.004
X5.566Y-4.064
X5.7725Y-2.6682
X5.7863Y-5.0669
X5.7941Y-2.4961
X5.8009Y-2.641
X5.8299Y-2.6121
X5.8368Y-3.3309
X5.844Y-2.815
X5.8571Y-2.9921
X5.902Y-3.946
X5.902Y-4.006
X5.902Y-4.066
X5.9339Y-3.1437
X5.9378Y-2.6181
X5.987Y-3.4488
X5.989Y-3.3701
X6.05Y-5.0669
X6.0796Y-3.2362
X6.1051Y-3.1496
X6.1583Y-3.3701
X6.1603Y-3.4488
X6.1622Y-3.8442
X6.1642Y-3.1496
X6.17Y-3.261
X6.1859Y-3.4854
X6.2079Y-3.8913
X6.2414Y-3.7462
X6.2429Y-3.2539
X6.2571Y-3.9391
X6.279Y-3.825
X6.281Y-2.917
X6.284Y-3.677
X6.3099Y-3.189
X6.3177Y-5.0669
X6.4122Y-2.5118
X6.4201Y-4.3543
X6.43Y-4.134
X6.49Y-3.376
X6.4989Y-5.0709
X6.506Y-3.343
X6.532Y-2.91
X6.533Y-3.113
X6.543Y-2.718
X6.5737Y-3.9008
X6.629Y-4.158
X6.63Y-4.38
X6.68Y-3.421
X6.6819Y-3.3366
X6.689Y-3.748
X6.6918Y-3.6772
X6.708Y-3.92
X6.71Y-3.574
X6.721Y-4.377
X6.7528Y-3.3425
X6.811Y-3.538
X6.8335Y-2.917
X6.8689Y-3.5394
X6.894Y-2.975
X6.908Y-2.648
X6.9319Y-3.0709
X6.956Y-3.356
X6.957Y-2.716
X6.9949Y-5.0709
X7.004Y-3.026
X7.021Y-3.453
X7.0461Y-2.5157
X7.05Y-2.639
X7.063Y-3.408
X7.0987Y-2.869
X7.254Y-2.6772
X7.294Y-2.766
X7.4162Y-2.5315
X7.4415Y-4.122
X7.442Y-4.012
X7.446Y-3.368
X7.458Y-3.756
X7.465Y-4.283
X7.4752Y-3.5157
X7.4831Y-2.7559
T3
X4.1233Y-2.5197
X4.2233Y-2.5197
X4.3233Y-2.5197
X4.4233Y-2.5197
X4.5233Y-2.5197
X4.6233Y-2.5197
X4.7233Y-2.5197
T4
X3.2711Y-4.6461
X3.2711Y-4.843
X3.468Y-4.6461
X3.468Y-4.843
X3.7974Y-4.6461
X3.7974Y-4.843
X3.9943Y-4.6461
X3.9943Y-4.843
X4.1911Y-4.6461
X4.1911Y-4.843
X4.388Y-4.6461
X4.388Y-4.843
X4.5849Y-4.6461
X4.5849Y-4.843
X4.7817Y-4.6461
X4.7817Y-4.843
X4.9786Y-4.6461
X4.9786Y-4.843
X5.1754Y-4.6461
X5.1754Y-4.843
X5.3723Y-4.6461
X5.3723Y-4.843
X5.7011Y-4.6461
X5.7011Y-4.843
X5.898Y-4.6461
X5.898Y-4.843
X6.2254Y-4.6461
X6.2254Y-4.843
X6.4223Y-4.6461
X6.4223Y-4.843
X6.6191Y-4.6461
X6.6191Y-4.843
X6.816Y-4.6461
X6.816Y-4.843
T5
X6.3215Y-2.77
X6.6165Y-2.77
T3
G00X7.075Y-4.7218
M15
G01X7.075Y-4.8202
M16
G05
G00X7.1537Y-4.586
M15
G01X7.2325Y-4.586
M16
G05
G00X7.3112Y-4.7316
M15
G01X7.3112Y-4.8104
M16
G05
T0
M30
