G04 #@! TF.GenerationSoftware,KiCad,Pcbnew,(7.0.0)*
G04 #@! TF.CreationDate,2023-03-28T16:02:03-07:00*
G04 #@! TF.ProjectId,OpenSprinkler,4f70656e-5370-4726-996e-6b6c65722e6b,1*
G04 #@! TF.SameCoordinates,Original*
G04 #@! TF.FileFunction,Soldermask,Bot*
G04 #@! TF.FilePolarity,Negative*
%FSLAX46Y46*%
G04 Gerber Fmt 4.6, Leading zero omitted, Abs format (unit mm)*
G04 Created by KiCad (PCBNEW (7.0.0)) date 2023-03-28 16:02:03*
%MOMM*%
%LPD*%
G01*
G04 APERTURE LIST*
G04 Aperture macros list*
%AMRoundRect*
0 Rectangle with rounded corners*
0 $1 Rounding radius*
0 $2 $3 $4 $5 $6 $7 $8 $9 X,Y pos of 4 corners*
0 Add a 4 corners polygon primitive as box body*
4,1,4,$2,$3,$4,$5,$6,$7,$8,$9,$2,$3,0*
0 Add four circle primitives for the rounded corners*
1,1,$1+$1,$2,$3*
1,1,$1+$1,$4,$5*
1,1,$1+$1,$6,$7*
1,1,$1+$1,$8,$9*
0 Add four rect primitives between the rounded corners*
20,1,$1+$1,$2,$3,$4,$5,0*
20,1,$1+$1,$4,$5,$6,$7,0*
20,1,$1+$1,$6,$7,$8,$9,0*
20,1,$1+$1,$8,$9,$2,$3,0*%
%AMFreePoly0*
4,1,14,-0.351096,0.988808,0.410904,0.023608,0.419100,0.000000,0.410904,-0.023608,-0.351096,-0.988808,-0.370318,-1.001772,-0.393495,-1.001193,-0.412046,-0.987285,-0.419100,-0.965200,-0.419100,0.965200,-0.412046,0.987285,-0.393495,1.001193,-0.370318,1.001772,-0.351096,0.988808,-0.351096,0.988808,$1*%
G04 Aperture macros list end*
%ADD10RoundRect,0.038100X-0.960871X0.811312X-0.960871X-0.811312X0.960871X-0.811312X0.960871X0.811312X0*%
%ADD11FreePoly0,270.000000*%
%ADD12FreePoly0,90.000000*%
%ADD13RoundRect,0.038100X0.960871X-0.812056X0.960871X0.812056X-0.960871X0.812056X-0.960871X-0.812056X0*%
%ADD14RoundRect,0.038100X-0.811312X-0.960871X0.811312X-0.960871X0.811312X0.960871X-0.811312X0.960871X0*%
%ADD15FreePoly0,0.000000*%
%ADD16FreePoly0,180.000000*%
%ADD17RoundRect,0.038100X0.812056X0.960871X-0.812056X0.960871X-0.812056X-0.960871X0.812056X-0.960871X0*%
%ADD18O,2.576200X5.076200*%
%ADD19O,2.326200X4.576200*%
%ADD20O,4.576200X2.326200*%
%ADD21RoundRect,0.038100X-0.750000X-1.500000X0.750000X-1.500000X0.750000X1.500000X-0.750000X1.500000X0*%
%ADD22O,1.576200X3.076200*%
%ADD23C,2.776200*%
%ADD24RoundRect,0.038100X-0.850000X0.850000X-0.850000X-0.850000X0.850000X-0.850000X0.850000X0.850000X0*%
%ADD25O,1.776200X1.776200*%
%ADD26C,1.828800*%
G04 APERTURE END LIST*
D10*
X185847471Y-109907288D03*
D11*
X185851800Y-111099600D03*
D12*
X185847475Y-112064800D03*
D13*
X185851804Y-113257856D03*
D14*
X93091000Y-106426004D03*
D15*
X94283312Y-106421675D03*
D16*
X95248512Y-106426000D03*
D17*
X96441568Y-106421671D03*
D14*
X135610600Y-106426004D03*
D15*
X136802912Y-106421675D03*
D16*
X137768112Y-106426000D03*
D17*
X138961168Y-106421671D03*
D14*
X118592600Y-106426004D03*
D15*
X119784912Y-106421675D03*
D16*
X120750112Y-106426000D03*
D17*
X121943168Y-106421671D03*
D14*
X144246600Y-106680004D03*
D15*
X145438912Y-106675675D03*
D16*
X146404112Y-106680000D03*
D17*
X147597168Y-106675671D03*
D14*
X110210600Y-106426004D03*
D15*
X111402912Y-106421675D03*
D16*
X112368112Y-106426000D03*
D17*
X113561168Y-106421671D03*
D14*
X127228600Y-106426004D03*
D15*
X128420912Y-106421675D03*
D16*
X129386112Y-106426000D03*
D17*
X130579168Y-106421671D03*
D14*
X152525512Y-106675679D03*
D15*
X153717824Y-106671350D03*
D16*
X154683024Y-106675675D03*
D17*
X155876080Y-106671346D03*
D14*
X101574600Y-106426004D03*
D15*
X102766912Y-106421675D03*
D16*
X103732112Y-106426000D03*
D17*
X104925168Y-106421671D03*
D14*
X86156800Y-106426004D03*
D15*
X87349112Y-106421675D03*
D16*
X88314312Y-106426000D03*
D17*
X89507368Y-106421671D03*
D18*
X179704999Y-121183399D03*
D19*
X185704999Y-121183399D03*
D20*
X182704999Y-116483399D03*
D21*
X83087200Y-118012200D03*
X83087200Y-123012200D03*
D22*
X88087199Y-118012199D03*
X88087199Y-123012199D03*
D23*
X183570800Y-65000000D03*
X82070800Y-65200000D03*
D24*
X119970800Y-64000000D03*
D25*
X117430799Y-63999999D03*
X114890799Y-63999999D03*
X112350799Y-63999999D03*
X109810799Y-63999999D03*
X107270799Y-63999999D03*
X104730799Y-63999999D03*
D23*
X165430200Y-108305600D03*
D21*
X144809200Y-118012200D03*
X144809200Y-123012200D03*
D22*
X149809199Y-118012199D03*
X149809199Y-123012199D03*
D26*
X168059100Y-70358000D03*
X160566100Y-70358000D03*
D21*
X158126400Y-118012200D03*
X158126400Y-123012200D03*
D22*
X163126399Y-118012199D03*
X163126399Y-123012199D03*
X168126399Y-118012199D03*
X168126399Y-123012199D03*
X173126399Y-118012199D03*
X173126399Y-123012199D03*
D21*
X96455200Y-118012200D03*
X96455200Y-123012200D03*
D22*
X101455199Y-118012199D03*
X101455199Y-123012199D03*
X106455199Y-118012199D03*
X106455199Y-123012199D03*
X111455199Y-118012199D03*
X111455199Y-123012199D03*
X116455199Y-118012199D03*
X116455199Y-123012199D03*
X121455199Y-118012199D03*
X121455199Y-123012199D03*
X126455199Y-118012199D03*
X126455199Y-123012199D03*
X131455199Y-118012199D03*
X131455199Y-123012199D03*
X136455199Y-118012199D03*
X136455199Y-123012199D03*
D23*
X81940400Y-109397800D03*
M02*
