G04 #@! TF.GenerationSoftware,KiCad,Pcbnew,(7.0.0)*
G04 #@! TF.CreationDate,2023-03-28T16:02:03-07:00*
G04 #@! TF.ProjectId,OpenSprinkler,4f70656e-5370-4726-996e-6b6c65722e6b,1*
G04 #@! TF.SameCoordinates,Original*
G04 #@! TF.FileFunction,Legend,Bot*
G04 #@! TF.FilePolarity,Positive*
%FSLAX46Y46*%
G04 Gerber Fmt 4.6, Leading zero omitted, Abs format (unit mm)*
G04 Created by KiCad (PCBNEW (7.0.0)) date 2023-03-28 16:02:03*
%MOMM*%
%LPD*%
G01*
G04 APERTURE LIST*
G04 Aperture macros list*
%AMRoundRect*
0 Rectangle with rounded corners*
0 $1 Rounding radius*
0 $2 $3 $4 $5 $6 $7 $8 $9 X,Y pos of 4 corners*
0 Add a 4 corners polygon primitive as box body*
4,1,4,$2,$3,$4,$5,$6,$7,$8,$9,$2,$3,0*
0 Add four circle primitives for the rounded corners*
1,1,$1+$1,$2,$3*
1,1,$1+$1,$4,$5*
1,1,$1+$1,$6,$7*
1,1,$1+$1,$8,$9*
0 Add four rect primitives between the rounded corners*
20,1,$1+$1,$2,$3,$4,$5,0*
20,1,$1+$1,$4,$5,$6,$7,0*
20,1,$1+$1,$6,$7,$8,$9,0*
20,1,$1+$1,$8,$9,$2,$3,0*%
%AMFreePoly0*
4,1,14,-0.351096,0.988808,0.410904,0.023608,0.419100,0.000000,0.410904,-0.023608,-0.351096,-0.988808,-0.370318,-1.001772,-0.393495,-1.001193,-0.412046,-0.987285,-0.419100,-0.965200,-0.419100,0.965200,-0.412046,0.987285,-0.393495,1.001193,-0.370318,1.001772,-0.351096,0.988808,-0.351096,0.988808,$1*%
G04 Aperture macros list end*
%ADD10C,0.150000*%
%ADD11C,0.300000*%
%ADD12C,0.120000*%
%ADD13C,0.508000*%
%ADD14RoundRect,0.038100X-0.960871X0.811312X-0.960871X-0.811312X0.960871X-0.811312X0.960871X0.811312X0*%
%ADD15FreePoly0,270.000000*%
%ADD16FreePoly0,90.000000*%
%ADD17RoundRect,0.038100X0.960871X-0.812056X0.960871X0.812056X-0.960871X0.812056X-0.960871X-0.812056X0*%
%ADD18RoundRect,0.038100X-0.811312X-0.960871X0.811312X-0.960871X0.811312X0.960871X-0.811312X0.960871X0*%
%ADD19FreePoly0,0.000000*%
%ADD20FreePoly0,180.000000*%
%ADD21RoundRect,0.038100X0.812056X0.960871X-0.812056X0.960871X-0.812056X-0.960871X0.812056X-0.960871X0*%
%ADD22O,2.576200X5.076200*%
%ADD23O,2.326200X4.576200*%
%ADD24O,4.576200X2.326200*%
%ADD25RoundRect,0.038100X-0.750000X-1.500000X0.750000X-1.500000X0.750000X1.500000X-0.750000X1.500000X0*%
%ADD26O,1.576200X3.076200*%
%ADD27C,2.776200*%
%ADD28RoundRect,0.038100X-0.850000X0.850000X-0.850000X-0.850000X0.850000X-0.850000X0.850000X0.850000X0*%
%ADD29O,1.776200X1.776200*%
%ADD30C,1.828800*%
G04 APERTURE END LIST*
D10*
X102717600Y-66713700D02*
X102717600Y-65215100D01*
X121916800Y-65226800D02*
X102717600Y-65226800D01*
X121942200Y-65277600D02*
X121942200Y-66750800D01*
X102717600Y-66750800D02*
X121866000Y-66750800D01*
X110370732Y-66484121D02*
X110701399Y-66011740D01*
X110937589Y-66484121D02*
X110937589Y-65492121D01*
X110937589Y-65492121D02*
X110559684Y-65492121D01*
X110559684Y-65492121D02*
X110465208Y-65539360D01*
X110465208Y-65539360D02*
X110417970Y-65586598D01*
X110417970Y-65586598D02*
X110370732Y-65681074D01*
X110370732Y-65681074D02*
X110370732Y-65822788D01*
X110370732Y-65822788D02*
X110417970Y-65917264D01*
X110417970Y-65917264D02*
X110465208Y-65964502D01*
X110465208Y-65964502D02*
X110559684Y-66011740D01*
X110559684Y-66011740D02*
X110937589Y-66011740D01*
X110040065Y-65492121D02*
X109378732Y-66484121D01*
X109378732Y-65492121D02*
X110040065Y-66484121D01*
D11*
X81410771Y-78919342D02*
X79910771Y-78919342D01*
X79910771Y-78919342D02*
X79910771Y-79490771D01*
X79910771Y-79490771D02*
X79982200Y-79633628D01*
X79982200Y-79633628D02*
X80053628Y-79705057D01*
X80053628Y-79705057D02*
X80196485Y-79776485D01*
X80196485Y-79776485D02*
X80410771Y-79776485D01*
X80410771Y-79776485D02*
X80553628Y-79705057D01*
X80553628Y-79705057D02*
X80625057Y-79633628D01*
X80625057Y-79633628D02*
X80696485Y-79490771D01*
X80696485Y-79490771D02*
X80696485Y-78919342D01*
X81339342Y-80990771D02*
X81410771Y-80847914D01*
X81410771Y-80847914D02*
X81410771Y-80562200D01*
X81410771Y-80562200D02*
X81339342Y-80419342D01*
X81339342Y-80419342D02*
X81196485Y-80347914D01*
X81196485Y-80347914D02*
X80625057Y-80347914D01*
X80625057Y-80347914D02*
X80482200Y-80419342D01*
X80482200Y-80419342D02*
X80410771Y-80562200D01*
X80410771Y-80562200D02*
X80410771Y-80847914D01*
X80410771Y-80847914D02*
X80482200Y-80990771D01*
X80482200Y-80990771D02*
X80625057Y-81062200D01*
X80625057Y-81062200D02*
X80767914Y-81062200D01*
X80767914Y-81062200D02*
X80910771Y-80347914D01*
X81410771Y-81705056D02*
X80410771Y-81705056D01*
X80696485Y-81705056D02*
X80553628Y-81776485D01*
X80553628Y-81776485D02*
X80482200Y-81847914D01*
X80482200Y-81847914D02*
X80410771Y-81990771D01*
X80410771Y-81990771D02*
X80410771Y-82133628D01*
X81339342Y-83205056D02*
X81410771Y-83062199D01*
X81410771Y-83062199D02*
X81410771Y-82776485D01*
X81410771Y-82776485D02*
X81339342Y-82633627D01*
X81339342Y-82633627D02*
X81196485Y-82562199D01*
X81196485Y-82562199D02*
X80625057Y-82562199D01*
X80625057Y-82562199D02*
X80482200Y-82633627D01*
X80482200Y-82633627D02*
X80410771Y-82776485D01*
X80410771Y-82776485D02*
X80410771Y-83062199D01*
X80410771Y-83062199D02*
X80482200Y-83205056D01*
X80482200Y-83205056D02*
X80625057Y-83276485D01*
X80625057Y-83276485D02*
X80767914Y-83276485D01*
X80767914Y-83276485D02*
X80910771Y-82562199D01*
X80410771Y-83919341D02*
X81410771Y-83919341D01*
X80553628Y-83919341D02*
X80482200Y-83990770D01*
X80482200Y-83990770D02*
X80410771Y-84133627D01*
X80410771Y-84133627D02*
X80410771Y-84347913D01*
X80410771Y-84347913D02*
X80482200Y-84490770D01*
X80482200Y-84490770D02*
X80625057Y-84562199D01*
X80625057Y-84562199D02*
X81410771Y-84562199D01*
X80410771Y-85276484D02*
X81410771Y-85276484D01*
X80553628Y-85276484D02*
X80482200Y-85347913D01*
X80482200Y-85347913D02*
X80410771Y-85490770D01*
X80410771Y-85490770D02*
X80410771Y-85705056D01*
X80410771Y-85705056D02*
X80482200Y-85847913D01*
X80482200Y-85847913D02*
X80625057Y-85919342D01*
X80625057Y-85919342D02*
X81410771Y-85919342D01*
X81410771Y-86633627D02*
X80410771Y-86633627D01*
X79910771Y-86633627D02*
X79982200Y-86562199D01*
X79982200Y-86562199D02*
X80053628Y-86633627D01*
X80053628Y-86633627D02*
X79982200Y-86705056D01*
X79982200Y-86705056D02*
X79910771Y-86633627D01*
X79910771Y-86633627D02*
X80053628Y-86633627D01*
X81410771Y-87990771D02*
X80625057Y-87990771D01*
X80625057Y-87990771D02*
X80482200Y-87919342D01*
X80482200Y-87919342D02*
X80410771Y-87776485D01*
X80410771Y-87776485D02*
X80410771Y-87490771D01*
X80410771Y-87490771D02*
X80482200Y-87347913D01*
X81339342Y-87990771D02*
X81410771Y-87847913D01*
X81410771Y-87847913D02*
X81410771Y-87490771D01*
X81410771Y-87490771D02*
X81339342Y-87347913D01*
X81339342Y-87347913D02*
X81196485Y-87276485D01*
X81196485Y-87276485D02*
X81053628Y-87276485D01*
X81053628Y-87276485D02*
X80910771Y-87347913D01*
X80910771Y-87347913D02*
X80839342Y-87490771D01*
X80839342Y-87490771D02*
X80839342Y-87847913D01*
X80839342Y-87847913D02*
X80767914Y-87990771D01*
X81410771Y-88919342D02*
X81339342Y-88776485D01*
X81339342Y-88776485D02*
X81196485Y-88705056D01*
X81196485Y-88705056D02*
X79910771Y-88705056D01*
X81410771Y-91247913D02*
X80696485Y-90747913D01*
X81410771Y-90390770D02*
X79910771Y-90390770D01*
X79910771Y-90390770D02*
X79910771Y-90962199D01*
X79910771Y-90962199D02*
X79982200Y-91105056D01*
X79982200Y-91105056D02*
X80053628Y-91176485D01*
X80053628Y-91176485D02*
X80196485Y-91247913D01*
X80196485Y-91247913D02*
X80410771Y-91247913D01*
X80410771Y-91247913D02*
X80553628Y-91176485D01*
X80553628Y-91176485D02*
X80625057Y-91105056D01*
X80625057Y-91105056D02*
X80696485Y-90962199D01*
X80696485Y-90962199D02*
X80696485Y-90390770D01*
X80410771Y-91747913D02*
X81410771Y-92105056D01*
X80410771Y-92462199D02*
X81410771Y-92105056D01*
X81410771Y-92105056D02*
X81767914Y-91962199D01*
X81767914Y-91962199D02*
X81839342Y-91890770D01*
X81839342Y-91890770D02*
X81910771Y-91747913D01*
X81339342Y-93605056D02*
X81410771Y-93462199D01*
X81410771Y-93462199D02*
X81410771Y-93176485D01*
X81410771Y-93176485D02*
X81339342Y-93033627D01*
X81339342Y-93033627D02*
X81196485Y-92962199D01*
X81196485Y-92962199D02*
X80625057Y-92962199D01*
X80625057Y-92962199D02*
X80482200Y-93033627D01*
X80482200Y-93033627D02*
X80410771Y-93176485D01*
X80410771Y-93176485D02*
X80410771Y-93462199D01*
X80410771Y-93462199D02*
X80482200Y-93605056D01*
X80482200Y-93605056D02*
X80625057Y-93676485D01*
X80625057Y-93676485D02*
X80767914Y-93676485D01*
X80767914Y-93676485D02*
X80910771Y-92962199D01*
X80410771Y-94962199D02*
X81625057Y-94962199D01*
X81625057Y-94962199D02*
X81767914Y-94890770D01*
X81767914Y-94890770D02*
X81839342Y-94819341D01*
X81839342Y-94819341D02*
X81910771Y-94676484D01*
X81910771Y-94676484D02*
X81910771Y-94462199D01*
X81910771Y-94462199D02*
X81839342Y-94319341D01*
X81339342Y-94962199D02*
X81410771Y-94819341D01*
X81410771Y-94819341D02*
X81410771Y-94533627D01*
X81410771Y-94533627D02*
X81339342Y-94390770D01*
X81339342Y-94390770D02*
X81267914Y-94319341D01*
X81267914Y-94319341D02*
X81125057Y-94247913D01*
X81125057Y-94247913D02*
X80696485Y-94247913D01*
X80696485Y-94247913D02*
X80553628Y-94319341D01*
X80553628Y-94319341D02*
X80482200Y-94390770D01*
X80482200Y-94390770D02*
X80410771Y-94533627D01*
X80410771Y-94533627D02*
X80410771Y-94819341D01*
X80410771Y-94819341D02*
X80482200Y-94962199D01*
X81410771Y-95676484D02*
X80410771Y-95676484D01*
X80696485Y-95676484D02*
X80553628Y-95747913D01*
X80553628Y-95747913D02*
X80482200Y-95819342D01*
X80482200Y-95819342D02*
X80410771Y-95962199D01*
X80410771Y-95962199D02*
X80410771Y-96105056D01*
X81410771Y-97247913D02*
X80625057Y-97247913D01*
X80625057Y-97247913D02*
X80482200Y-97176484D01*
X80482200Y-97176484D02*
X80410771Y-97033627D01*
X80410771Y-97033627D02*
X80410771Y-96747913D01*
X80410771Y-96747913D02*
X80482200Y-96605055D01*
X81339342Y-97247913D02*
X81410771Y-97105055D01*
X81410771Y-97105055D02*
X81410771Y-96747913D01*
X81410771Y-96747913D02*
X81339342Y-96605055D01*
X81339342Y-96605055D02*
X81196485Y-96533627D01*
X81196485Y-96533627D02*
X81053628Y-96533627D01*
X81053628Y-96533627D02*
X80910771Y-96605055D01*
X80910771Y-96605055D02*
X80839342Y-96747913D01*
X80839342Y-96747913D02*
X80839342Y-97105055D01*
X80839342Y-97105055D02*
X80767914Y-97247913D01*
X81339342Y-97890770D02*
X81410771Y-98033627D01*
X81410771Y-98033627D02*
X81410771Y-98319341D01*
X81410771Y-98319341D02*
X81339342Y-98462198D01*
X81339342Y-98462198D02*
X81196485Y-98533627D01*
X81196485Y-98533627D02*
X81125057Y-98533627D01*
X81125057Y-98533627D02*
X80982200Y-98462198D01*
X80982200Y-98462198D02*
X80910771Y-98319341D01*
X80910771Y-98319341D02*
X80910771Y-98105056D01*
X80910771Y-98105056D02*
X80839342Y-97962198D01*
X80839342Y-97962198D02*
X80696485Y-97890770D01*
X80696485Y-97890770D02*
X80625057Y-97890770D01*
X80625057Y-97890770D02*
X80482200Y-97962198D01*
X80482200Y-97962198D02*
X80410771Y-98105056D01*
X80410771Y-98105056D02*
X80410771Y-98319341D01*
X80410771Y-98319341D02*
X80482200Y-98462198D01*
X81339342Y-99105056D02*
X81410771Y-99247913D01*
X81410771Y-99247913D02*
X81410771Y-99533627D01*
X81410771Y-99533627D02*
X81339342Y-99676484D01*
X81339342Y-99676484D02*
X81196485Y-99747913D01*
X81196485Y-99747913D02*
X81125057Y-99747913D01*
X81125057Y-99747913D02*
X80982200Y-99676484D01*
X80982200Y-99676484D02*
X80910771Y-99533627D01*
X80910771Y-99533627D02*
X80910771Y-99319342D01*
X80910771Y-99319342D02*
X80839342Y-99176484D01*
X80839342Y-99176484D02*
X80696485Y-99105056D01*
X80696485Y-99105056D02*
X80625057Y-99105056D01*
X80625057Y-99105056D02*
X80482200Y-99176484D01*
X80482200Y-99176484D02*
X80410771Y-99319342D01*
X80410771Y-99319342D02*
X80410771Y-99533627D01*
X80410771Y-99533627D02*
X80482200Y-99676484D01*
X79910771Y-101076485D02*
X81410771Y-101576485D01*
X81410771Y-101576485D02*
X79910771Y-102076485D01*
X79910771Y-102862199D02*
X79910771Y-103005056D01*
X79910771Y-103005056D02*
X79982200Y-103147913D01*
X79982200Y-103147913D02*
X80053628Y-103219342D01*
X80053628Y-103219342D02*
X80196485Y-103290770D01*
X80196485Y-103290770D02*
X80482200Y-103362199D01*
X80482200Y-103362199D02*
X80839342Y-103362199D01*
X80839342Y-103362199D02*
X81125057Y-103290770D01*
X81125057Y-103290770D02*
X81267914Y-103219342D01*
X81267914Y-103219342D02*
X81339342Y-103147913D01*
X81339342Y-103147913D02*
X81410771Y-103005056D01*
X81410771Y-103005056D02*
X81410771Y-102862199D01*
X81410771Y-102862199D02*
X81339342Y-102719342D01*
X81339342Y-102719342D02*
X81267914Y-102647913D01*
X81267914Y-102647913D02*
X81125057Y-102576484D01*
X81125057Y-102576484D02*
X80839342Y-102505056D01*
X80839342Y-102505056D02*
X80482200Y-102505056D01*
X80482200Y-102505056D02*
X80196485Y-102576484D01*
X80196485Y-102576484D02*
X80053628Y-102647913D01*
X80053628Y-102647913D02*
X79982200Y-102719342D01*
X79982200Y-102719342D02*
X79910771Y-102862199D01*
X81267914Y-104005055D02*
X81339342Y-104076484D01*
X81339342Y-104076484D02*
X81410771Y-104005055D01*
X81410771Y-104005055D02*
X81339342Y-103933627D01*
X81339342Y-103933627D02*
X81267914Y-104005055D01*
X81267914Y-104005055D02*
X81410771Y-104005055D01*
X81410771Y-105505056D02*
X81410771Y-104647913D01*
X81410771Y-105076484D02*
X79910771Y-105076484D01*
X79910771Y-105076484D02*
X80125057Y-104933627D01*
X80125057Y-104933627D02*
X80267914Y-104790770D01*
X80267914Y-104790770D02*
X80339342Y-104647913D01*
D10*
X108537623Y-66484121D02*
X108537623Y-65492121D01*
X108537623Y-65492121D02*
X108301433Y-65492121D01*
X108301433Y-65492121D02*
X108159718Y-65539360D01*
X108159718Y-65539360D02*
X108065242Y-65633836D01*
X108065242Y-65633836D02*
X108018004Y-65728312D01*
X108018004Y-65728312D02*
X107970766Y-65917264D01*
X107970766Y-65917264D02*
X107970766Y-66058979D01*
X107970766Y-66058979D02*
X108018004Y-66247931D01*
X108018004Y-66247931D02*
X108065242Y-66342407D01*
X108065242Y-66342407D02*
X108159718Y-66436883D01*
X108159718Y-66436883D02*
X108301433Y-66484121D01*
X108301433Y-66484121D02*
X108537623Y-66484121D01*
X107687337Y-65492121D02*
X107120480Y-65492121D01*
X107403909Y-66484121D02*
X107403909Y-65492121D01*
X106222956Y-66484121D02*
X106553623Y-66011740D01*
X106789813Y-66484121D02*
X106789813Y-65492121D01*
X106789813Y-65492121D02*
X106411908Y-65492121D01*
X106411908Y-65492121D02*
X106317432Y-65539360D01*
X106317432Y-65539360D02*
X106270194Y-65586598D01*
X106270194Y-65586598D02*
X106222956Y-65681074D01*
X106222956Y-65681074D02*
X106222956Y-65822788D01*
X106222956Y-65822788D02*
X106270194Y-65917264D01*
X106270194Y-65917264D02*
X106317432Y-65964502D01*
X106317432Y-65964502D02*
X106411908Y-66011740D01*
X106411908Y-66011740D02*
X106789813Y-66011740D01*
X121057076Y-65539360D02*
X121151552Y-65492121D01*
X121151552Y-65492121D02*
X121293266Y-65492121D01*
X121293266Y-65492121D02*
X121434981Y-65539360D01*
X121434981Y-65539360D02*
X121529457Y-65633836D01*
X121529457Y-65633836D02*
X121576695Y-65728312D01*
X121576695Y-65728312D02*
X121623933Y-65917264D01*
X121623933Y-65917264D02*
X121623933Y-66058979D01*
X121623933Y-66058979D02*
X121576695Y-66247931D01*
X121576695Y-66247931D02*
X121529457Y-66342407D01*
X121529457Y-66342407D02*
X121434981Y-66436883D01*
X121434981Y-66436883D02*
X121293266Y-66484121D01*
X121293266Y-66484121D02*
X121198790Y-66484121D01*
X121198790Y-66484121D02*
X121057076Y-66436883D01*
X121057076Y-66436883D02*
X121009838Y-66389645D01*
X121009838Y-66389645D02*
X121009838Y-66058979D01*
X121009838Y-66058979D02*
X121198790Y-66058979D01*
X120584695Y-66484121D02*
X120584695Y-65492121D01*
X120584695Y-65492121D02*
X120017838Y-66484121D01*
X120017838Y-66484121D02*
X120017838Y-65492121D01*
X119545457Y-66484121D02*
X119545457Y-65492121D01*
X119545457Y-65492121D02*
X119309267Y-65492121D01*
X119309267Y-65492121D02*
X119167552Y-65539360D01*
X119167552Y-65539360D02*
X119073076Y-65633836D01*
X119073076Y-65633836D02*
X119025838Y-65728312D01*
X119025838Y-65728312D02*
X118978600Y-65917264D01*
X118978600Y-65917264D02*
X118978600Y-66058979D01*
X118978600Y-66058979D02*
X119025838Y-66247931D01*
X119025838Y-66247931D02*
X119073076Y-66342407D01*
X119073076Y-66342407D02*
X119167552Y-66436883D01*
X119167552Y-66436883D02*
X119309267Y-66484121D01*
X119309267Y-66484121D02*
X119545457Y-66484121D01*
X113243079Y-65492121D02*
X112676222Y-65492121D01*
X112959651Y-66484121D02*
X112959651Y-65492121D01*
X112440031Y-65492121D02*
X111778698Y-66484121D01*
X111778698Y-65492121D02*
X112440031Y-66484121D01*
X115595807Y-66484121D02*
X115595807Y-65492121D01*
X115595807Y-65492121D02*
X115028950Y-66484121D01*
X115028950Y-66484121D02*
X115028950Y-65492121D01*
X113989712Y-66389645D02*
X114036950Y-66436883D01*
X114036950Y-66436883D02*
X114178664Y-66484121D01*
X114178664Y-66484121D02*
X114273140Y-66484121D01*
X114273140Y-66484121D02*
X114414855Y-66436883D01*
X114414855Y-66436883D02*
X114509331Y-66342407D01*
X114509331Y-66342407D02*
X114556569Y-66247931D01*
X114556569Y-66247931D02*
X114603807Y-66058979D01*
X114603807Y-66058979D02*
X114603807Y-65917264D01*
X114603807Y-65917264D02*
X114556569Y-65728312D01*
X114556569Y-65728312D02*
X114509331Y-65633836D01*
X114509331Y-65633836D02*
X114414855Y-65539360D01*
X114414855Y-65539360D02*
X114273140Y-65492121D01*
X114273140Y-65492121D02*
X114178664Y-65492121D01*
X114178664Y-65492121D02*
X114036950Y-65539360D01*
X114036950Y-65539360D02*
X113989712Y-65586598D01*
X118090249Y-66484121D02*
X118090249Y-65492121D01*
X118090249Y-65492121D02*
X117523392Y-66484121D01*
X117523392Y-66484121D02*
X117523392Y-65492121D01*
X116484154Y-66389645D02*
X116531392Y-66436883D01*
X116531392Y-66436883D02*
X116673106Y-66484121D01*
X116673106Y-66484121D02*
X116767582Y-66484121D01*
X116767582Y-66484121D02*
X116909297Y-66436883D01*
X116909297Y-66436883D02*
X117003773Y-66342407D01*
X117003773Y-66342407D02*
X117051011Y-66247931D01*
X117051011Y-66247931D02*
X117098249Y-66058979D01*
X117098249Y-66058979D02*
X117098249Y-65917264D01*
X117098249Y-65917264D02*
X117051011Y-65728312D01*
X117051011Y-65728312D02*
X117003773Y-65633836D01*
X117003773Y-65633836D02*
X116909297Y-65539360D01*
X116909297Y-65539360D02*
X116767582Y-65492121D01*
X116767582Y-65492121D02*
X116673106Y-65492121D01*
X116673106Y-65492121D02*
X116531392Y-65539360D01*
X116531392Y-65539360D02*
X116484154Y-65586598D01*
X104767752Y-66484121D02*
X105098419Y-66011740D01*
X105334609Y-66484121D02*
X105334609Y-65492121D01*
X105334609Y-65492121D02*
X104956704Y-65492121D01*
X104956704Y-65492121D02*
X104862228Y-65539360D01*
X104862228Y-65539360D02*
X104814990Y-65586598D01*
X104814990Y-65586598D02*
X104767752Y-65681074D01*
X104767752Y-65681074D02*
X104767752Y-65822788D01*
X104767752Y-65822788D02*
X104814990Y-65917264D01*
X104814990Y-65917264D02*
X104862228Y-65964502D01*
X104862228Y-65964502D02*
X104956704Y-66011740D01*
X104956704Y-66011740D02*
X105334609Y-66011740D01*
X104484323Y-65492121D02*
X103917466Y-65492121D01*
X104200895Y-66484121D02*
X104200895Y-65492121D01*
X103634037Y-66436883D02*
X103492323Y-66484121D01*
X103492323Y-66484121D02*
X103256132Y-66484121D01*
X103256132Y-66484121D02*
X103161656Y-66436883D01*
X103161656Y-66436883D02*
X103114418Y-66389645D01*
X103114418Y-66389645D02*
X103067180Y-66295169D01*
X103067180Y-66295169D02*
X103067180Y-66200693D01*
X103067180Y-66200693D02*
X103114418Y-66106217D01*
X103114418Y-66106217D02*
X103161656Y-66058979D01*
X103161656Y-66058979D02*
X103256132Y-66011740D01*
X103256132Y-66011740D02*
X103445085Y-65964502D01*
X103445085Y-65964502D02*
X103539561Y-65917264D01*
X103539561Y-65917264D02*
X103586799Y-65870026D01*
X103586799Y-65870026D02*
X103634037Y-65775550D01*
X103634037Y-65775550D02*
X103634037Y-65681074D01*
X103634037Y-65681074D02*
X103586799Y-65586598D01*
X103586799Y-65586598D02*
X103539561Y-65539360D01*
X103539561Y-65539360D02*
X103445085Y-65492121D01*
X103445085Y-65492121D02*
X103208894Y-65492121D01*
X103208894Y-65492121D02*
X103067180Y-65539360D01*
D12*
X185116800Y-111320948D02*
X185116800Y-111843452D01*
X186586800Y-111320948D02*
X186586800Y-111843452D01*
X94504660Y-107156675D02*
X95027164Y-107156675D01*
X94504660Y-105686675D02*
X95027164Y-105686675D01*
X137024260Y-107156675D02*
X137546764Y-107156675D01*
X137024260Y-105686675D02*
X137546764Y-105686675D01*
X120006260Y-107156675D02*
X120528764Y-107156675D01*
X120006260Y-105686675D02*
X120528764Y-105686675D01*
X145660260Y-107410675D02*
X146182764Y-107410675D01*
X145660260Y-105940675D02*
X146182764Y-105940675D01*
X111624260Y-107156675D02*
X112146764Y-107156675D01*
X111624260Y-105686675D02*
X112146764Y-105686675D01*
X128642260Y-107156675D02*
X129164764Y-107156675D01*
X128642260Y-105686675D02*
X129164764Y-105686675D01*
X153939172Y-107406350D02*
X154461676Y-107406350D01*
X153939172Y-105936350D02*
X154461676Y-105936350D01*
X102988260Y-107156675D02*
X103510764Y-107156675D01*
X102988260Y-105686675D02*
X103510764Y-105686675D01*
X87570460Y-107156675D02*
X88092964Y-107156675D01*
X87570460Y-105686675D02*
X88092964Y-105686675D01*
D13*
X174409100Y-70358000D02*
G75*
G03*
X174409100Y-70358000I-381000J0D01*
G01*
G36*
X89513239Y-80621959D02*
G01*
X89595529Y-80695754D01*
X89710430Y-80804988D01*
X89850029Y-80941656D01*
X90006412Y-81097748D01*
X90171665Y-81265258D01*
X90337876Y-81436179D01*
X90497130Y-81602502D01*
X90641513Y-81756222D01*
X90763113Y-81889329D01*
X90854016Y-81993817D01*
X91000205Y-82171958D01*
X91587633Y-82947697D01*
X92130840Y-83767338D01*
X92631251Y-84633885D01*
X93090287Y-85550340D01*
X93509373Y-86519707D01*
X93889932Y-87544990D01*
X94233387Y-88629194D01*
X94541160Y-89775320D01*
X94569381Y-89890520D01*
X94624116Y-90118349D01*
X94671121Y-90319875D01*
X94707855Y-90483876D01*
X94731774Y-90599128D01*
X94740336Y-90654409D01*
X94746745Y-90693284D01*
X94773135Y-90691115D01*
X94785900Y-90659637D01*
X94804432Y-90557151D01*
X94823289Y-90392719D01*
X94842126Y-90173045D01*
X94860600Y-89904831D01*
X94878365Y-89594781D01*
X94895079Y-89249597D01*
X94910395Y-88875981D01*
X94923971Y-88480638D01*
X94935463Y-88070270D01*
X94944525Y-87651579D01*
X94950813Y-87231269D01*
X94952433Y-87077135D01*
X94955730Y-86327600D01*
X94950452Y-85640567D01*
X94936348Y-85007301D01*
X94913165Y-84419064D01*
X94880652Y-83867120D01*
X94838555Y-83342733D01*
X94834491Y-83298037D01*
X94819247Y-83124933D01*
X94807677Y-82984683D01*
X94800849Y-82890698D01*
X94799832Y-82856389D01*
X94817298Y-82870069D01*
X94872292Y-82933085D01*
X94954675Y-83036867D01*
X95055843Y-83169874D01*
X95167187Y-83320566D01*
X95280102Y-83477402D01*
X95385981Y-83628843D01*
X95476217Y-83763348D01*
X95747629Y-84211579D01*
X96091544Y-84887430D01*
X96392046Y-85615024D01*
X96647353Y-86388774D01*
X96855685Y-87203095D01*
X97015258Y-88052399D01*
X97124293Y-88931100D01*
X97140021Y-89096391D01*
X97157865Y-89276863D01*
X97173438Y-89427238D01*
X97184559Y-89526009D01*
X97203735Y-89680456D01*
X97470933Y-89158957D01*
X97901255Y-88378851D01*
X98412377Y-87583455D01*
X98966614Y-86847162D01*
X99564365Y-86169523D01*
X100206027Y-85550090D01*
X100891999Y-84988413D01*
X101622679Y-84484045D01*
X101745577Y-84408034D01*
X101904955Y-84312877D01*
X102068360Y-84218188D01*
X102222426Y-84131475D01*
X102353784Y-84060244D01*
X102449068Y-84012000D01*
X102494910Y-83994251D01*
X102492574Y-84010051D01*
X102465144Y-84081260D01*
X102413738Y-84199870D01*
X102343130Y-84354971D01*
X102258092Y-84535652D01*
X101716157Y-85736636D01*
X101197741Y-87027428D01*
X100726726Y-88353956D01*
X100307629Y-89702615D01*
X99944965Y-91059799D01*
X99643253Y-92411902D01*
X99590435Y-92682328D01*
X99461810Y-93407376D01*
X99348855Y-94143916D01*
X99253071Y-94878512D01*
X99175958Y-95597723D01*
X99119020Y-96288112D01*
X99083756Y-96936240D01*
X99071667Y-97528667D01*
X99071667Y-98015638D01*
X95199968Y-98015638D01*
X91328268Y-98015638D01*
X91311547Y-97933051D01*
X91310799Y-97928996D01*
X91302763Y-97854991D01*
X91293374Y-97726412D01*
X91283739Y-97560200D01*
X91274964Y-97373297D01*
X91253397Y-97047475D01*
X91184708Y-96486445D01*
X91077161Y-95896292D01*
X90934238Y-95295064D01*
X90759419Y-94700812D01*
X90723187Y-94590982D01*
X90447484Y-93847706D01*
X90115544Y-93087592D01*
X89735332Y-92324979D01*
X89314811Y-91574206D01*
X88861945Y-90849612D01*
X88384698Y-90165535D01*
X87891033Y-89536314D01*
X87865551Y-89505688D01*
X87759191Y-89374102D01*
X87677939Y-89267388D01*
X87629364Y-89195823D01*
X87621033Y-89169684D01*
X87626766Y-89170158D01*
X87693789Y-89186616D01*
X87813908Y-89223237D01*
X87973954Y-89275499D01*
X88160759Y-89338880D01*
X88361155Y-89408855D01*
X88561972Y-89480904D01*
X88750043Y-89550503D01*
X88912198Y-89613129D01*
X88984434Y-89642139D01*
X89759141Y-89987106D01*
X90496989Y-90378076D01*
X91187698Y-90809177D01*
X91820988Y-91274537D01*
X91876389Y-91318488D01*
X91980599Y-91399082D01*
X92054350Y-91453201D01*
X92084372Y-91470948D01*
X92084032Y-91451462D01*
X92074872Y-91368969D01*
X92056875Y-91231444D01*
X92031570Y-91049177D01*
X92000484Y-90832460D01*
X91965145Y-90591583D01*
X91927083Y-90336838D01*
X91887825Y-90078514D01*
X91848899Y-89826904D01*
X91811834Y-89592298D01*
X91778158Y-89384986D01*
X91749399Y-89215260D01*
X91731311Y-89112422D01*
X91529349Y-88035352D01*
X91305576Y-86960885D01*
X91062616Y-85899125D01*
X90803092Y-84860176D01*
X90529627Y-83854141D01*
X90244842Y-82891125D01*
X89951362Y-81981230D01*
X89651808Y-81134561D01*
X89613723Y-81031159D01*
X89552616Y-80860669D01*
X89505290Y-80722535D01*
X89475834Y-80628850D01*
X89468333Y-80591708D01*
X89471473Y-80591611D01*
X89513239Y-80621959D01*
G37*
%LPC*%
D14*
X185847471Y-109907288D03*
D15*
X185851800Y-111099600D03*
D16*
X185847475Y-112064800D03*
D17*
X185851804Y-113257856D03*
D18*
X93091000Y-106426004D03*
D19*
X94283312Y-106421675D03*
D20*
X95248512Y-106426000D03*
D21*
X96441568Y-106421671D03*
D18*
X135610600Y-106426004D03*
D19*
X136802912Y-106421675D03*
D20*
X137768112Y-106426000D03*
D21*
X138961168Y-106421671D03*
D18*
X118592600Y-106426004D03*
D19*
X119784912Y-106421675D03*
D20*
X120750112Y-106426000D03*
D21*
X121943168Y-106421671D03*
D18*
X144246600Y-106680004D03*
D19*
X145438912Y-106675675D03*
D20*
X146404112Y-106680000D03*
D21*
X147597168Y-106675671D03*
D18*
X110210600Y-106426004D03*
D19*
X111402912Y-106421675D03*
D20*
X112368112Y-106426000D03*
D21*
X113561168Y-106421671D03*
D18*
X127228600Y-106426004D03*
D19*
X128420912Y-106421675D03*
D20*
X129386112Y-106426000D03*
D21*
X130579168Y-106421671D03*
D18*
X152525512Y-106675679D03*
D19*
X153717824Y-106671350D03*
D20*
X154683024Y-106675675D03*
D21*
X155876080Y-106671346D03*
D18*
X101574600Y-106426004D03*
D19*
X102766912Y-106421675D03*
D20*
X103732112Y-106426000D03*
D21*
X104925168Y-106421671D03*
D18*
X86156800Y-106426004D03*
D19*
X87349112Y-106421675D03*
D20*
X88314312Y-106426000D03*
D21*
X89507368Y-106421671D03*
D22*
X179704999Y-121183399D03*
D23*
X185704999Y-121183399D03*
D24*
X182704999Y-116483399D03*
D25*
X83087200Y-118012200D03*
X83087200Y-123012200D03*
D26*
X88087199Y-118012199D03*
X88087199Y-123012199D03*
D27*
X183570800Y-65000000D03*
X82070800Y-65200000D03*
D28*
X119970800Y-64000000D03*
D29*
X117430799Y-63999999D03*
X114890799Y-63999999D03*
X112350799Y-63999999D03*
X109810799Y-63999999D03*
X107270799Y-63999999D03*
X104730799Y-63999999D03*
D27*
X165430200Y-108305600D03*
D25*
X144809200Y-118012200D03*
X144809200Y-123012200D03*
D26*
X149809199Y-118012199D03*
X149809199Y-123012199D03*
D30*
X168059100Y-70358000D03*
X160566100Y-70358000D03*
D25*
X158126400Y-118012200D03*
X158126400Y-123012200D03*
D26*
X163126399Y-118012199D03*
X163126399Y-123012199D03*
X168126399Y-118012199D03*
X168126399Y-123012199D03*
X173126399Y-118012199D03*
X173126399Y-123012199D03*
D25*
X96455200Y-118012200D03*
X96455200Y-123012200D03*
D26*
X101455199Y-118012199D03*
X101455199Y-123012199D03*
X106455199Y-118012199D03*
X106455199Y-123012199D03*
X111455199Y-118012199D03*
X111455199Y-123012199D03*
X116455199Y-118012199D03*
X116455199Y-123012199D03*
X121455199Y-118012199D03*
X121455199Y-123012199D03*
X126455199Y-118012199D03*
X126455199Y-123012199D03*
X131455199Y-118012199D03*
X131455199Y-123012199D03*
X136455199Y-118012199D03*
X136455199Y-123012199D03*
D27*
X81940400Y-109397800D03*
M02*
